<?xml version="1.0" ?><!DOCTYPE svg  PUBLIC '-//W3C//DTD SVG 1.1//EN'  'http://www.w3.org/Graphics/SVG/1.1/DTD/svg11.dtd'><svg height="2048px" style="shape-rendering:geometricPrecision; text-rendering:geometricPrecision; image-rendering:optimizeQuality; fill-rule:evenodd; clip-rule:evenodd" viewBox="0 0 2048 2048" width="2048px" xml:space="preserve" xmlns="http://www.w3.org/2000/svg" xmlns:xlink="http://www.w3.org/1999/xlink"><defs><style type="text/css">
   <![CDATA[
    .fil2 {fill:none}
    .fil1 {fill:#E6B940}
    .fil3 {fill:#EF5350}
    .fil4 {fill:#EF9A9A}
    .fil0 {fill:#FFCE47}
    .fil6 {fill:#689F38;fill-rule:nonzero}
    .fil5 {fill:#7CB342;fill-rule:nonzero}
   ]]>
  </style><clipPath id="id0"><path d="M1024 -0.0011811c565.537,0 1024,458.464 1024,1024 0,565.537 -458.464,1024 -1024,1024 -565.537,0 -1024,-458.464 -1024,-1024 0,-565.537 458.464,-1024 1024,-1024z"/></clipPath></defs><g id="Layer_x0020_1"><path class="fil0" d="M1024 -0.0011811c565.537,0 1024,458.464 1024,1024 0,565.537 -458.464,1024 -1024,1024 -565.537,0 -1024,-458.464 -1024,-1024 0,-565.537 458.464,-1024 1024,-1024z"/><g style="clip-path:url(#id0)"><g id="_554052112"><g><polygon class="fil1" id="_5542644081" points="1268.63,576.711 2404.51,1712.59 2409.74,1718.78 2414.82,1725.09 2419.76,1731.53 2424.54,1738.08 2429.16,1744.76 2433.63,1751.55 2437.94,1758.45 2442.09,1765.46 2446.06,1772.58 2449.88,1779.81 2453.52,1787.13 2456.98,1794.56 2460.27,1802.08 2463.38,1809.7 2466.31,1817.41 2469.06,1825.2 2471.62,1833.09 2473.99,1841.06 2476.16,1849.1 2478.15,1857.23 2479.93,1865.43 2481.52,1873.71 2482.9,1882.05 2484.08,1890.46 2485.04,1898.94 2485.8,1907.48 2486.35,1916.08 2486.68,1924.74 2486.79,1933.45 1350.9,797.566 1350.79,788.855 1350.47,780.198 1349.92,771.598 1349.16,763.059 1348.19,754.581 1347.02,746.168 1345.63,737.823 1344.05,729.549 1342.26,721.347 1340.28,713.221 1338.11,705.173 1335.74,697.205 1333.18,689.323 1330.43,681.525 1327.5,673.817 1324.39,666.199 1321.1,658.676 1317.63,651.251 1313.99,643.925 1310.18,636.7 1306.2,629.58 1302.06,622.568 1297.75,615.665 1293.28,608.875 1288.66,602.202 1283.88,595.646 1278.94,589.21 1273.86,582.898 "/><polygon class="fil1" id="_554269184" points="1350.9,797.566 2486.79,1933.45 2486.65,1939.81 2486.26,1946.36 2485.62,1953.09 2484.73,1960.01 2483.6,1967.09 2482.23,1974.35 2480.63,1981.77 2478.81,1989.34 2476.77,1997.07 2474.52,2004.93 2472.07,2012.94 2469.42,2021.07 2466.57,2029.34 2463.53,2037.72 2460.31,2046.22 2456.92,2054.82 2453.35,2063.52 2449.63,2072.32 2445.74,2081.21 2441.7,2090.19 2437.52,2099.24 2433.19,2108.36 2428.73,2117.55 2424.15,2126.8 2419.44,2136.1 2414.61,2145.45 2409.68,2154.84 2404.63,2164.27 2399.49,2173.73 2394.26,2183.21 2388.94,2192.71 2383.54,2202.22 1247.66,1066.33 1253.06,1056.83 1258.38,1047.33 1263.61,1037.85 1268.75,1028.39 1273.79,1018.96 1278.73,1009.57 1283.56,1000.22 1288.27,990.918 1292.85,981.67 1297.31,972.481 1301.64,963.357 1305.82,954.307 1309.86,945.333 1313.75,936.441 1317.47,927.641 1321.04,918.936 1324.43,910.333 1327.65,901.837 1330.69,893.455 1333.53,885.192 1336.19,877.055 1338.64,869.051 1340.89,861.184 1342.93,853.46 1344.75,845.886 1346.35,838.469 1347.72,831.212 1348.85,824.123 1349.74,817.208 1350.38,810.473 1350.77,803.924 "/><polygon class="fil1" id="_554250992" points="1247.66,1066.33 2383.54,2202.22 2382.4,2204.21 2381.25,2206.2 2380.11,2208.2 2378.96,2210.19 2377.8,2212.19 2376.65,2214.18 2375.49,2216.17 2374.32,2218.16 2373.16,2220.16 2371.99,2222.15 2370.82,2224.14 2369.65,2226.13 2368.47,2228.12 2367.29,2230.11 2366.11,2232.1 2364.93,2234.08 2363.74,2236.07 2362.55,2238.06 2361.37,2240.04 2360.17,2242.02 2358.98,2244.01 2357.78,2245.99 2356.58,2247.97 2355.38,2249.95 2354.18,2251.93 2352.98,2253.91 2351.77,2255.88 2350.56,2257.85 2349.35,2259.83 2348.14,2261.8 2346.93,2263.77 2345.71,2265.74 1209.83,1129.85 1211.05,1127.89 1212.26,1125.92 1213.47,1123.94 1214.68,1121.97 1215.89,1120 1217.1,1118.02 1218.3,1116.05 1219.5,1114.07 1220.7,1112.09 1221.9,1110.11 1223.1,1108.13 1224.29,1106.14 1225.48,1104.16 1226.67,1102.17 1227.86,1100.19 1229.05,1098.2 1230.23,1096.21 1231.41,1094.22 1232.59,1092.24 1233.77,1090.25 1234.94,1088.26 1236.11,1086.26 1237.28,1084.27 1238.44,1082.28 1239.6,1080.29 1240.76,1078.3 1241.92,1076.3 1243.07,1074.31 1244.23,1072.32 1245.37,1070.32 1246.52,1068.33 "/><polygon class="fil1" id="_554261288" points="1541.12,1261.62 2677,2397.5 2684.91,2405.95 2692.07,2414.56 2698.44,2423.31 2704.03,2432.2 2708.8,2441.23 2712.74,2450.38 2715.84,2459.65 2718.07,2469.04 2719.43,2478.52 2719.88,2488.11 2719.15,2500.24 2716.99,2512.2 2713.43,2524 2708.5,2535.6 2702.25,2547.01 2694.71,2558.19 2685.9,2569.14 2675.87,2579.84 2664.66,2590.28 2652.29,2600.44 2638.81,2610.31 2624.24,2619.87 2608.63,2629.11 2592.01,2638.01 2574.4,2646.56 2555.86,2654.75 2536.41,2662.55 2516.09,2669.96 2494.94,2676.95 2472.98,2683.52 2450.26,2689.65 2426.81,2695.33 2402.66,2700.53 2377.86,2705.25 2352.43,2709.47 2326.41,2713.17 2299.83,2716.35 2272.74,2718.98 2245.16,2721.05 2217.14,2722.55 2188.7,2723.46 2159.88,2723.77 2131.06,2723.46 2102.62,2722.55 2074.6,2721.05 2047.02,2718.98 2019.93,2716.35 1993.35,2713.17 1967.33,2709.47 1941.9,2705.25 1917.1,2700.53 1892.95,2695.33 1869.5,2689.65 1846.78,2683.52 1824.82,2676.95 1803.67,2669.96 1783.35,2662.55 1763.9,2654.75 1745.36,2646.56 1727.76,2638.01 1711.13,2629.11 1695.52,2619.87 1680.95,2610.31 1667.47,2600.44 1655.1,2590.28 519.221,1454.4 531.589,1464.56 545.072,1474.43 559.639,1483.99 575.252,1493.23 591.876,1502.13 609.478,1510.68 628.02,1518.86 647.468,1526.67 667.788,1534.07 688.942,1541.07 710.899,1547.64 733.62,1553.77 757.071,1559.44 781.217,1564.65 806.023,1569.37 831.453,1573.59 857.473,1577.29 884.048,1580.47 911.141,1583.1 938.717,1585.17 966.744,1586.67 995.182,1587.58 1024,1587.89 1052.82,1587.58 1081.26,1586.67 1109.28,1585.17 1136.86,1583.1 1163.95,1580.47 1190.53,1577.29 1216.55,1573.59 1241.98,1569.37 1266.78,1564.65 1290.93,1559.44 1314.38,1553.77 1337.1,1547.64 1359.06,1541.07 1380.21,1534.07 1400.53,1526.67 1419.98,1518.86 1438.52,1510.68 1456.12,1502.13 1472.75,1493.23 1488.36,1483.99 1502.93,1474.43 1516.41,1464.56 1528.78,1454.4 1539.99,1443.96 1550.02,1433.26 1558.82,1422.31 1566.37,1411.12 1572.62,1399.72 1577.55,1388.12 1581.11,1376.32 1583.27,1364.35 1584,1352.23 1583.55,1342.64 1582.19,1333.15 1579.96,1323.77 1576.86,1314.5 1572.92,1305.34 1568.15,1296.32 1562.56,1287.43 1556.19,1278.67 1549.03,1270.07 "/></g><path class="fil1" d="M1252.08 558.935c61.0595,61.063 98.8217,145.433 98.8217,238.631 0,66.7713 -45.2303,167.293 -103.245,268.768 -12.1595,21.2693 -24.8634,42.5351 -37.8284,63.5197 217.94,32.2524 374.17,119.635 374.17,222.373 0,130.152 -250.722,235.66 -560.001,235.66 -309.279,0 -560.001,-105.508 -560.001,-235.66 0,-99.6922 147.105,-184.927 354.952,-219.36 -13.611,-21.9614 -26.9516,-44.2453 -39.6933,-66.5327 -58.0182,-101.476 -103.249,-201.997 -103.249,-268.768 0,-93.1902 37.7693,-177.558 98.8347,-238.623 61.0607,-61.0619 145.425,-98.8312 238.619,-98.8312 93.2044,0 177.561,37.7646 238.619,98.8229z" id="_554033656"/></g></g><path class="fil2" d="M1024 -0.0011811c565.537,0 1024,458.464 1024,1024 0,565.537 -458.464,1024 -1024,1024 -565.537,0 -1024,-458.464 -1024,-1024 0,-565.537 458.464,-1024 1024,-1024z"/><ellipse class="fil3" cx="1024" cy="1352.23" rx="560.001" ry="235.659"/><ellipse class="fil4" cx="1024" cy="1352.23" rx="237.52" ry="99.9533"/><path class="fil5" d="M1252.08 558.935c61.0595,61.063 98.8217,145.433 98.8217,238.631 0,66.7713 -45.2303,167.293 -103.245,268.768 -59.4804,104.039 -131.981,208.004 -184.338,279.464 -5.81457,7.95473 -13.3725,14.3067 -21.9697,18.6791 -8.48859,4.31693 -18.0154,6.65906 -27.8882,6.65906 -9.8256,0 -19.3512,-2.34803 -27.861,-6.6756 -8.6067,-4.37835 -16.1823,-10.7232 -21.9957,-18.6626 -52.363,-71.4615 -124.869,-175.428 -184.349,-279.464 -58.0182,-101.476 -103.249,-201.997 -103.249,-268.768 0,-93.1902 37.7693,-177.558 98.8347,-238.623 61.0607,-61.0619 145.425,-98.8312 238.619,-98.8312 93.2044,0 177.561,37.7646 238.619,98.8229z"/><path class="fil6" d="M910.789 687.762c-26.2677,26.2654 -42.5115,62.5642 -42.5115,102.676 0,40.1174 16.2059,76.3772 42.4099,102.558 26.263,26.2394 62.5949,42.4748 102.777,42.4748 40.1823,0 76.5095,-16.2354 102.768,-42.4713 26.2016,-26.1815 42.404,-62.4426 42.404,-102.561 0,-40.1138 -16.2402,-76.4138 -42.5044,-102.678 -26.2642,-26.2677 -62.5583,-42.5103 -102.667,-42.5103 -40.1091,0 -76.4091,16.2437 -102.676,42.5126z"/></g></svg>